<?xml version="1.0" encoding="UTF-8" standalone="no"?>
<svg xmlns:ffdec="https://www.free-decompiler.com/flash" xmlns:xlink="http://www.w3.org/1999/xlink" ffdec:objectType="shape" height="61.4px" width="104.4px" xmlns="http://www.w3.org/2000/svg">
  <g transform="matrix(1.0, 0.0, 0.0, 1.0, 0.0, 0.0)">
    <path d="M101.35 4.0 Q102.65 5.1 102.95 6.8 L103.05 7.4 103.55 8.0 Q104.9 9.95 104.15 12.35 L96.15 37.15 Q95.35 39.55 93.05 40.35 L74.15 47.35 Q73.35 48.35 72.25 48.75 L59.1 54.5 54.8 54.4 36.9 61.1 35.1 61.4 Q34.0 61.4 33.3 61.0 L10.1 52.2 Q7.5 51.2 7.0 48.55 L1.9 24.8 Q1.6 24.0 1.8 23.1 -0.15 21.45 0.0 18.75 0.2 16.95 1.5 15.65 2.8 14.35 4.5 14.15 L26.8 11.55 27.2 11.45 39.75 7.1 42.65 6.9 42.75 6.9 57.6 0.4 59.6 0.0 60.0 0.0 98.35 2.7 Q100.05 2.9 101.35 4.0 M97.85 9.4 L98.55 9.0 Q99.55 8.5 99.25 7.5 99.05 6.6 98.05 6.4 L59.7 3.7 59.1 3.8 43.05 10.85 41.75 10.55 40.95 10.55 28.4 14.95 28.0 15.25 5.0 17.95 Q3.8 17.95 3.8 19.15 3.6 20.15 4.7 20.55 L8.6 21.85 6.5 22.45 Q5.3 22.75 5.5 24.0 L10.6 47.75 Q10.7 48.45 11.5 48.75 L34.6 57.5 35.1 57.6 35.6 57.6 55.7 50.1 Q55.9 50.7 56.2 50.9 56.7 51.3 57.6 51.1 L70.75 45.35 Q71.55 45.05 71.55 44.25 L91.75 36.85 Q92.45 36.55 92.55 35.95 L100.65 11.25 Q100.85 10.55 100.45 10.05 100.05 9.5 99.45 9.5 L97.85 9.4" fill="#ffffff" fill-rule="evenodd" stroke="none"/>
    <path d="M97.85 9.4 L99.45 9.5 Q100.05 9.5 100.45 10.05 100.85 10.55 100.65 11.25 L92.55 35.95 Q92.45 36.55 91.75 36.85 L71.55 44.25 Q71.55 45.05 70.75 45.35 L57.6 51.1 Q56.7 51.3 56.2 50.9 55.9 50.7 55.7 50.1 L35.6 57.6 35.1 57.6 34.6 57.5 11.5 48.75 Q10.7 48.45 10.6 47.75 L5.5 24.0 Q5.3 22.75 6.5 22.45 L8.6 21.85 4.7 20.55 Q3.6 20.15 3.8 19.15 3.8 17.95 5.0 17.95 L28.0 15.25 28.4 14.95 40.95 10.55 41.75 10.55 43.05 10.85 59.1 3.8 59.7 3.7 98.05 6.4 Q99.05 6.6 99.25 7.5 99.55 8.5 98.55 9.0 L97.85 9.4 M92.65 10.35 L97.95 7.8 59.6 5.1 43.15 12.25 41.45 11.85 28.9 16.25 29.4 16.35 29.1 16.45 5.1 19.25 13.15 21.95 6.8 23.7 7.5 26.7 8.1 29.6 9.1 34.3 9.7 37.15 10.9 42.45 11.6 45.75 12.0 47.45 35.1 56.3 57.2 48.15 57.0 49.8 70.25 44.05 70.35 43.35 91.25 35.6 92.35 32.1 93.55 28.6 94.35 26.2 95.35 23.0 96.75 18.55 97.85 15.25 99.35 10.85 92.65 10.35 M77.25 18.05 L77.35 17.95 79.4 17.35 77.25 18.05 M60.1 23.5 L60.1 23.6 57.8 24.3 60.1 23.5" fill="#4d6328" fill-rule="evenodd" stroke="none"/>
    <path d="M43.15 12.25 L59.6 5.1 97.95 7.8 92.65 10.35 77.35 17.95 77.25 18.05 72.95 19.45 43.15 12.25 M13.15 21.95 L5.1 19.25 29.1 16.45 29.4 16.35 59.6 23.2 60.1 23.4 33.8 28.6 13.15 21.95" fill="#9ac027" fill-rule="evenodd" stroke="none"/>
    <path d="M92.65 10.35 L99.35 10.85 80.1 17.15 79.4 17.35 77.35 17.95 92.65 10.35 M6.8 23.7 L13.15 21.95 33.8 28.6 60.1 23.4 60.1 23.5 57.8 24.3 35.1 31.6 6.8 23.7" fill="#88ab28" fill-rule="evenodd" stroke="none"/>
    <path d="M99.35 10.85 L97.85 15.25 73.45 22.75 73.95 19.65 73.55 19.55 72.95 19.45 77.25 18.05 79.4 17.35 80.1 17.15 99.35 10.85 M96.75 18.55 L95.35 23.0 72.25 30.8 73.05 25.4 96.75 18.55 M94.35 26.2 L93.55 28.6 71.25 37.25 71.85 33.3 94.35 26.2 M92.35 32.1 L91.25 35.6 70.35 43.35 70.85 39.85 92.35 32.1 M57.2 48.15 L35.1 56.3 35.0 52.8 35.1 52.8 57.6 44.65 57.2 48.15 M60.1 23.6 L59.7 27.0 35.1 34.5 35.1 31.6 57.8 24.3 60.1 23.6 M59.4 29.4 L58.7 35.3 35.1 43.25 35.0 43.25 35.1 36.35 59.4 29.4 M58.5 37.45 L57.9 42.45 35.1 51.3 35.0 51.3 35.0 50.5 35.0 48.9 35.0 45.35 35.0 44.85 35.1 44.85 58.5 37.45" fill="#5e7829" fill-rule="evenodd" stroke="none"/>
    <path d="M97.85 15.25 L96.75 18.55 73.05 25.4 73.45 22.75 97.85 15.25 M95.35 23.0 L94.35 26.2 71.85 33.3 72.25 30.8 95.35 23.0 M93.55 28.6 L92.35 32.1 70.85 39.85 71.25 37.25 93.55 28.6 M59.7 27.0 L59.4 29.4 35.1 36.35 35.1 36.25 35.1 34.8 35.1 34.5 59.7 27.0 M58.7 35.3 L58.5 37.45 35.1 44.85 35.0 44.85 35.0 43.95 35.0 43.25 35.1 43.25 58.7 35.3 M57.9 42.45 L57.6 44.65 35.1 52.8 35.0 52.8 35.0 51.3 35.1 51.3 57.9 42.45" fill="#516828" fill-rule="evenodd" stroke="none"/>
    <path d="M29.4 16.35 L28.9 16.25 41.45 11.85 43.15 12.25 72.95 19.45 73.55 19.55 59.6 23.2 29.4 16.35" fill="#f5f1eb" fill-rule="evenodd" stroke="none"/>
    <path d="M70.35 43.35 L70.25 44.05 57.0 49.8 57.2 48.15 57.6 44.65 57.9 42.45 58.5 37.45 58.7 35.3 59.4 29.4 59.7 27.0 60.1 23.6 60.1 23.5 60.1 23.4 59.6 23.2 73.55 19.55 73.95 19.65 73.45 22.75 73.05 25.4 72.25 30.8 71.85 33.3 71.25 37.25 70.85 39.85 70.35 43.35" fill="#ccbda0" fill-rule="evenodd" stroke="none"/>
    <path d="M11.6 45.75 L10.9 42.45 35.0 48.9 35.0 50.5 11.6 45.75 M9.7 37.15 L9.1 34.3 35.0 43.95 35.0 44.85 35.0 45.35 9.7 37.15 M8.1 29.6 L7.5 26.7 35.1 34.8 35.1 36.25 8.1 29.6" fill="#6a8729" fill-rule="evenodd" stroke="none"/>
    <path d="M35.1 56.3 L12.0 47.45 11.6 45.75 35.0 50.5 35.0 51.3 35.0 52.8 35.1 56.3 M10.9 42.45 L9.7 37.15 35.0 45.35 35.0 48.9 10.9 42.45 M9.1 34.3 L8.1 29.6 35.1 36.25 35.1 36.35 35.0 43.25 35.0 43.95 9.1 34.3 M7.5 26.7 L6.8 23.7 35.1 31.6 35.1 34.5 35.1 34.8 7.5 26.7" fill="#799929" fill-rule="evenodd" stroke="none"/>
  </g>
</svg>
